<svg width="40" height="40" viewBox="0 0 40 40" fill="none" xmlns="http://www.w3.org/2000/svg">
<rect width="40" height="40" fill="white"/>
<path fill-rule="evenodd" clip-rule="evenodd" d="M24.3437 8.85405C23.9532 8.46353 23.32 8.46353 22.9295 8.85405L5.10906 26.6745C4.71881 27.0647 4.71849 27.6974 5.10835 28.088L11.7149 34.7078C11.9025 34.8957 12.1571 35.0014 12.4227 35.0014H19.6912C19.9564 35.0014 20.2108 34.896 20.3983 34.7085L34.5911 20.5157C34.9817 20.1252 34.9817 19.492 34.5911 19.1015L24.3437 8.85405ZM12.9962 21.6158L23.6366 10.9754L32.4698 19.8086L21.8294 30.449L12.9962 21.6158ZM11.582 23.03L7.22967 27.3823L12.8375 33.0014H19.277L20.4152 31.8632L11.582 23.03ZM25 34.0014C25 33.4491 25.4477 33.0014 26 33.0014H36C36.5523 33.0014 37 33.4491 37 34.0014C37 34.5537 36.5523 35.0014 36 35.0014H26C25.4477 35.0014 25 34.5537 25 34.0014ZM6 33.0014C5.44772 33.0014 5 33.4491 5 34.0014C5 34.5537 5.44772 35.0014 6 35.0014H7C7.55228 35.0014 8 34.5537 8 34.0014C8 33.4491 7.55228 33.0014 7 33.0014H6Z" fill="black"/>
</svg>
