<svg width="40" height="40" viewBox="0 0 40 40" fill="none" xmlns="http://www.w3.org/2000/svg">
<rect width="40" height="40" fill="white"/>
<path fill-rule="evenodd" clip-rule="evenodd" d="M27.0711 4.02948L3.02954 28.0711L12.929 37.9706L36.9706 13.9289L27.0711 4.02948ZM34.1422 13.9289L27.0711 6.85788L21.4142 12.5148L24.9497 16.0503L23.5355 17.4645L20 13.929L17.1716 16.7574L19.293 18.8787L17.8788 20.2929L15.7574 18.1716L12.9289 21.0001L16.4644 24.5355L15.0501 25.9498L11.5147 22.4143L8.68634 25.2427L10.8076 27.364L9.3934 28.7782L7.27213 26.6569L5.85794 28.0711L12.929 35.1422L34.1422 13.9289ZM26.3641 11.8076L27.7783 10.3934L25.657 8.27209L24.2428 9.6863L26.3641 11.8076Z" fill="black"/>
</svg>
