<svg width="40" height="40" viewBox="0 0 40 40" fill="none" xmlns="http://www.w3.org/2000/svg">
<rect width="40" height="40" fill="transparent"/>
<path fill-rule="evenodd" clip-rule="evenodd" d="M3 5V13H7.77093C9.04085 13.8802 9.99999 15.3137 9.99999 17.1897V24H14V36.4484L25 30.1553V24H29V17.1897C29 15.3137 29.9591 13.8802 31.229 13H36V5H34V11H5V5H3ZM23 24H16V33L23 28.9953V24ZM12 17.1897C12 15.5147 11.4657 14.1102 10.6313 13H28.3687C27.5342 14.1102 27 15.5147 27 17.1897V22H12V17.1897Z" fill="currentColor"/>
</svg>
