<svg width="40" height="40" viewBox="0 0 40 40" fill="none" xmlns="http://www.w3.org/2000/svg">
<rect width="40" height="40" fill="transparent"/>
<path fill-rule="evenodd" clip-rule="evenodd" d="M31 12.573L19 36.4545L7 12.573V5H9V11.1273H10.6485C10.9201 11.1273 11.2124 11.0357 11.5036 10.8272L11.5039 10.827C13.2039 9.61014 15.2813 9.76208 16.8422 11.1721L16.8483 11.1777L16.849 11.1783C16.8524 11.1813 16.8593 11.1874 16.8696 11.196C16.8918 11.2147 16.9294 11.2454 16.981 11.2841C17.0849 11.3621 17.2419 11.4701 17.4415 11.5786C17.8466 11.7989 18.3862 12 18.9933 12H19.02C19.6272 12 20.1668 11.7989 20.5718 11.5786C20.7714 11.4701 20.9284 11.3621 21.0323 11.2841C21.084 11.2454 21.1215 11.2147 21.1437 11.196C21.1548 11.1867 21.1619 11.1804 21.165 11.1777L21.1654 11.1773L21.1711 11.1721L21.1712 11.1721C22.7254 9.76809 24.8048 9.59372 26.5001 10.8197L26.5086 10.8259L26.5086 10.8259C26.7829 11.0287 27.0685 11.1171 27.3515 11.1171H29V5H31V12.573ZM28.4883 13.1171H27.3515C26.6249 13.1171 25.9274 12.882 25.3244 12.4377C24.4391 11.7996 23.4066 11.849 22.5135 12.6547L22.5119 12.6562L22.5097 12.6582L22.4909 12.675C22.476 12.6882 22.4564 12.7053 22.4322 12.7257C22.3839 12.7663 22.3171 12.8205 22.2331 12.8835C22.0658 13.0091 21.8269 13.1726 21.5274 13.3356C20.9343 13.6582 20.0631 14 19.02 14H18.9933C17.9502 14 17.079 13.6582 16.4859 13.3356C16.1864 13.1726 15.9475 13.0091 15.7802 12.8835C15.6962 12.8205 15.6294 12.7663 15.5811 12.7257C15.5569 12.7053 15.5373 12.6882 15.5224 12.675L15.5036 12.6582L15.5015 12.6562C14.6134 11.854 13.5765 11.803 12.668 12.4533C12.0808 12.8738 11.3883 13.1273 10.6485 13.1273H9.51681L14.4777 23H23.5223L28.4883 13.1171ZM15.4826 25L19 32L22.5174 25H15.4826Z" fill="currentColor"/>
</svg>
