<svg width="40" height="40" viewBox="0 0 40 40" fill="none" xmlns="http://www.w3.org/2000/svg">
<rect width="40" height="40" fill="transparent"/>
<path fill-rule="evenodd" clip-rule="evenodd" d="M27.071 4.02946L3.02954 28.0711L12.929 37.9706L36.9707 13.9289L27.071 4.02946ZM34.1423 13.9289L27.071 6.85786L25.657 8.27208L27.7783 10.3934L26.364 11.8076L24.2427 9.68629L21.4141 12.5147L24.9497 16.0503L23.5354 17.4645L20 13.9289L17.1716 16.7574L19.293 18.8787L17.8787 20.2929L15.7573 18.1716L12.9287 21L16.4644 24.5355L15.05 25.9498L11.5146 22.4142L8.68628 25.2426L10.8076 27.364L9.39331 28.7782L7.27197 26.6568L5.85791 28.0711L12.929 35.1422L34.1423 13.9289Z" fill="black"/>
</svg>
