<svg width="40" height="40" viewBox="0 0 40 40" fill="none" xmlns="http://www.w3.org/2000/svg">
<rect width="40" height="40" fill="transparent"/>
<path fill-rule="evenodd" clip-rule="evenodd" d="M6 4V12H7.38029L14.3382 26H16.1156L17.0275 33.4114C17.1981 34.89 18.4512 35.9604 19.9124 35.999L19.9138 35.999C21.4419 36.0373 22.7964 34.9563 22.9858 33.4153L23.899 26H25.6618L32.6197 12H34V4H32V10H8V4H6ZM21.8839 26H18.1307L19.0141 33.1805C19.0635 33.615 19.4415 33.9855 19.9646 33.9997C20.5313 34.0135 20.9451 33.6247 21.0007 33.1715L21.8839 26ZM15.5776 24L9.61368 12H30.3863L24.4224 24H15.5776Z" fill="black"/>
</svg>
